<?xml version="1.0" encoding="UTF-8"?>
<svg id="_레이어_1" data-name="레이어 1" xmlns="http://www.w3.org/2000/svg" version="1.1" viewBox="0 0 4761.66 800">
  <defs>
    <style>
      .cls-1 {
        fill: #1e1e1e;
        stroke-width: 0px;
      }
    </style>
  </defs>
  <polygon class="cls-1" points="0 781.69 85.3 781.69 85.3 3.07 0 22.37 0 781.69"/>
  <polygon class="cls-1" points="398.96 281.21 331.97 231.43 122.91 504.53 359.38 795.82 426.36 743.09 223.32 500.48 398.96 281.21"/>
  <path class="cls-1" d="M682.99,237.7c-57.89,0-122.79,18.19-176.62,48.67l25.44,59.86c43.63-20.28,99.43-35.52,149.21-35.52,71.04,0,108.65,33.43,108.65,117.74v43.63h-106.56l-.25.12c-137.04,0-210.17,56.78-210.17,165.43,0,95.37,56.91,152.28,151.3,152.28,53.83,0,121.92-24.33,174.65-66.98l10.2,58.87h62.93v-349.18c0-133.97-61.95-194.93-188.79-194.93ZM789.8,659.76c-35.52,34.54-100.42,60.96-150.19,60.96-54.82,0-85.3-31.47-85.3-87.27,0-69.07,43.63-101.52,140.11-101.52h95.38v127.82Z"/>
  <polygon class="cls-1" points="1024.18 781.69 1109.48 781.69 1109.48 3.07 1024.18 22.37 1024.18 781.69"/>
  <polygon class="cls-1" points="1423.13 281.21 1356.15 231.43 1147.09 504.53 1383.56 795.82 1450.55 743.09 1247.5 500.48 1423.13 281.21"/>
  <path class="cls-1" d="M1707.17,237.7c-57.89,0-122.78,18.19-176.61,48.67l25.44,59.86c43.63-20.28,99.43-35.52,149.21-35.52,71.04,0,108.65,33.43,108.65,117.74v43.63h-106.56l-.25.12c-137.04,0-210.17,56.78-210.17,165.43,0,95.37,56.91,152.28,151.3,152.28,53.83,0,121.92-24.33,174.65-66.98l10.2,58.87h62.93v-349.18c0-133.97-61.95-194.93-188.79-194.93ZM1813.98,659.76c-35.52,34.54-100.41,60.96-150.19,60.96-54.81,0-85.29-31.47-85.29-87.27,0-69.07,43.63-101.52,140.11-101.52h95.37v127.82Z"/>
  <path class="cls-1" d="M2255.46,237.58c-147.24,0-237.58,100.42-237.58,278.14s88.37,276.17,237.58,276.17,237.58-98.57,237.58-276.17-90.33-278.14-237.58-278.14ZM2255.46,721.83c-94.39,0-149.21-71.04-149.21-206.12s54.81-208.08,149.21-208.08,149.21,73.01,149.21,208.08-54.82,206.12-149.21,206.12Z"/>
  <path class="cls-1" d="M2877.74,230.45c-46.71,0-89.35,14.26-121.8,34.54V0l-136.06,24.34v741.13c37.61,16.23,120.82,31.47,198.99,31.47,168.51,0,270.03-110.74,270.03-296.45,0-171.58-66.99-270.03-211.15-270.03ZM2804.61,694.42c-13.15,0-27.41,0-48.67-3.07v-339.1h-.13c16.23-5.04,42.65-12.17,73.13-12.17,96.35,0,121.8,59.98,121.8,163.47,0,137.04-60.84,190.87-146.14,190.87Z"/>
  <path class="cls-1" d="M3379.2,230.2c-70.06,0-146.26,21.39-198.01,56.91l37.61,93.41c48.79-25.32,94.39-35.52,144.17-35.52,80.13,0,98.45,33.55,98.45,92.43v18.31h-85.29v-.25c-145.15,0-222.34,58.87-222.34,171.58,0,106.56,57.89,168.5,162.48,168.5,47.69,0,106.56-17.21,161.38-59.85l15.24,45.72h95.37v-345.12c0-139.13-72.02-206.12-209.06-206.12ZM3461.42,647.72l-.12-.12c-24.34,21.38-73.13,42.65-117.75,42.65s-66.99-25.32-66.99-63.91c0-53.83,38.59-83.21,111.73-83.21h73.13v104.59Z"/>
  <path class="cls-1" d="M3997.42,230.45c-56.91,0-122.91,27.41-170.6,70.06l-20.27-53.83h-96.49v534.89h136.06v-412.11c31.47-12.17,72.15-20.28,100.54-20.28,72.02,0,94.39,25.44,94.39,85.3v347.21h136.05v-343.16c0-133.97-59.85-208.08-179.69-208.08Z"/>
  <polygon class="cls-1" points="4576.93 497.4 4741.38 285.27 4639.86 214.23 4434.84 492.36 4434.84 0 4298.79 24.34 4298.79 781.81 4434.84 781.81 4434.84 524.93 4659.15 800 4761.66 718.76 4576.93 497.4"/>
</svg>